<svg width="29" height="19" viewBox="0 0 29 19" fill="none" xmlns="http://www.w3.org/2000/svg">
<path fill-rule="evenodd" clip-rule="evenodd" d="M0.563004 9.16993C0.563004 4.1058 4.669 0 9.733 0H19.582C24.646 0 28.752 4.1058 28.752 9.16993C28.752 14.2341 24.646 18.3399 19.582 18.3399H9.733C4.669 18.3399 0.563004 14.2341 0.563004 9.16993ZM14.886 9.16993C14.886 11.9641 12.618 14.2303 9.82 14.2303C7.022 14.2303 4.754 11.9641 4.754 9.16993C4.754 6.37573 7.022 4.10956 9.82 4.10956C12.618 4.10956 14.886 6.37573 14.886 9.16993ZM16.485 14.0781L25.093 9.16993L16.485 4.26176V14.0781Z" fill="white"/>
</svg>
